<svg width="45" height="19" viewBox="0 0 45 19" fill="none" xmlns="http://www.w3.org/2000/svg">
<rect width="44.08" height="5" rx="2.5" transform="matrix(1 0 0 -1 0 19)" fill="#00A500"/>
<g clip-path="url(#clip0_2475_1527)">
<path d="M11.9674 9.25002H13.7174V2.25H11.9674C11.6452 2.25 11.384 2.51116 11.384 2.83333V8.66668C11.384 8.98885 11.6452 9.25002 11.9674 9.25002ZM15.0549 10.0042L18.7885 13.7378C18.8911 13.8404 19.0536 13.852 19.1697 13.7649L19.6671 13.3919C19.9498 13.1798 20.0772 12.8185 19.99 12.476L19.3172 9.83335H23.0507C23.695 9.83335 24.2174 9.31102 24.2174 8.66668V7.43916C24.2174 7.28673 24.1875 7.13583 24.1295 6.99495L22.3244 2.61126C22.2344 2.39268 22.0214 2.25 21.785 2.25H15.4674C15.1452 2.25 14.884 2.51116 14.884 2.83333V9.59172C14.884 9.74643 14.9455 9.89481 15.0549 10.0042Z" fill="white"/>
</g>
<path opacity="0.5" d="M30.4321 8.947C30.6561 8.99367 30.8708 9.02633 31.0761 9.045C31.2814 9.06833 31.4798 9.08 31.6711 9.08C32.2031 9.08 32.6721 9.00067 33.0781 8.842C33.4841 8.68333 33.8248 8.464 34.1001 8.184C34.3754 7.904 34.5831 7.575 34.7231 7.197C34.8631 6.82367 34.9331 6.42 34.9331 5.986C34.9331 5.44933 34.8374 4.95933 34.6461 4.516C34.4594 4.07267 34.1981 3.69233 33.8621 3.375C33.5261 3.06233 33.1271 2.81967 32.6651 2.647C32.2078 2.47433 31.7084 2.388 31.1671 2.388C30.8498 2.388 30.5488 2.42067 30.2641 2.486C29.9794 2.55133 29.7111 2.63767 29.4591 2.745C29.2118 2.857 28.9808 2.983 28.7661 3.123C28.5561 3.26767 28.3671 3.41933 28.1991 3.578L28.7311 4.313C28.8431 4.47167 28.9901 4.551 29.1721 4.551C29.2888 4.551 29.4078 4.51367 29.5291 4.439C29.6504 4.36433 29.7881 4.28267 29.9421 4.194C30.1008 4.10533 30.2851 4.02367 30.4951 3.949C30.7098 3.87433 30.9664 3.837 31.2651 3.837C31.5824 3.837 31.8624 3.88833 32.1051 3.991C32.3478 4.09367 32.5484 4.236 32.7071 4.418C32.8704 4.60467 32.9918 4.824 33.0711 5.076C33.1551 5.33267 33.1971 5.61033 33.1971 5.909C33.1971 6.45967 33.0361 6.889 32.7141 7.197C32.3968 7.50967 31.9254 7.666 31.3001 7.666C30.8194 7.666 30.3271 7.57733 29.8231 7.4L28.7451 7.708L29.5851 12.622H34.5831V11.887C34.5831 11.6397 34.5061 11.439 34.3521 11.285C34.1981 11.131 33.9368 11.054 33.5681 11.054H30.7891L30.4321 8.947Z" fill="white"/>
<defs>
<clipPath id="clip0_2475_1527">
<rect width="14" height="14" fill="white" transform="matrix(1 0 0 -1 10.8 14.5)"/>
</clipPath>
</defs>
</svg>
